<?xml version="1.0" encoding="UTF-8" standalone="no"?>
<!DOCTYPE svg PUBLIC "-//W3C//DTD SVG 1.0//EN" "http://www.w3.org/TR/2001/REC-SVG-20010904/DTD/svg10.dtd">
<!-- Wygenerowane w aplikacji Microsoft Visio 11.0, SVG Export, wersja 1.0. uklad_sterowania_i_instrumentacji.svg Page-1 -->
<svg xmlns="http://www.w3.org/2000/svg" xmlns:xlink="http://www.w3.org/1999/xlink" xmlns:ev="http://www.w3.org/2001/xml-events"
		xmlns:v="http://schemas.microsoft.com/visio/2003/SVGExtensions/" width="6.17007in" height="4.61964in"
		viewBox="0 0 444.245 332.614" xml:space="preserve" color-interpolation-filters="sRGB" class="st20">
	<v:documentProperties v:langID="1045" v:metric="true" v:viewMarkup="false">
		<v:userDefs>
			<v:ud v:nameU="msvNoAutoConnect" v:val="VT0(1):26"/>
		</v:userDefs>
	</v:documentProperties>

	<style type="text/css">
	<![CDATA[
		.st1 {fill:#96afcf;stroke:#000000;stroke-linecap:round;stroke-linejoin:round;stroke-width:0.24}
		.st2 {fill:#ffffff;stroke:#000000;stroke-linecap:round;stroke-linejoin:round;stroke-width:0.24}
		.st3 {fill:#ff0000;stroke:#000000;stroke-linecap:round;stroke-linejoin:round;stroke-width:0.24}
		.st4 {fill:#00b050;stroke:#000000;stroke-linecap:round;stroke-linejoin:round;stroke-width:0.75}
		.st5 {stroke:#000000;stroke-linecap:round;stroke-linejoin:round;stroke-width:0.24}
		.st6 {fill:#00b050;stroke:#000000;stroke-linecap:round;stroke-linejoin:round;stroke-width:1}
		.st7 {fill:#000000;font-family:Calibri;font-size:1.16666em}
		.st8 {marker-end:url(#mrkr13-53);stroke:#000000;stroke-linecap:round;stroke-linejoin:round;stroke-width:0.25}
		.st9 {fill:#000000;fill-opacity:1;stroke:#000000;stroke-opacity:1;stroke-width:0.090252707581227}
		.st10 {stroke:#000000;stroke-linecap:round;stroke-linejoin:round;stroke-width:0.25}
		.st11 {fill:none;stroke:none;stroke-linecap:round;stroke-linejoin:round;stroke-width:0.75}
		.st12 {fill:#000000;font-family:Calibri;font-size:1.00001em}
		.st13 {fill:#ffc000;stroke:#000000;stroke-linecap:round;stroke-linejoin:round;stroke-width:0.24}
		.st14 {marker-start:url(#mrkr13-78);stroke:#000000;stroke-linecap:round;stroke-linejoin:round;stroke-width:0.25}
		.st15 {fill:#002060;stroke:#000000;stroke-linecap:round;stroke-linejoin:round;stroke-width:0.24}
		.st16 {font-size:1em}
		.st17 {fill:#ffffff}
		.st18 {fill:#ffffff;stroke:#000000;stroke-linecap:round;stroke-linejoin:round;stroke-width:1}
		.st19 {stroke:#000000;stroke-linecap:round;stroke-linejoin:round;stroke-width:1}
		.st20 {fill:none;fill-rule:evenodd;font-size:12px;overflow:visible;stroke-linecap:square;stroke-miterlimit:3}
	]]>
	</style>

	<defs id="Markers">
		<g id="lend13">
			<path d="M 3 1 L 0 0 L 3 -1 L 3 1 " style="stroke:none"/>
		</g>
		<marker id="mrkr13-53" class="st9" v:arrowType="13" v:arrowSize="2" v:setback="33.24" refX="-33.24" orient="auto"
				markerUnits="strokeWidth" overflow="visible">
			<use xlink:href="#lend13" transform="scale(-11.08,-11.08) "/>
		</marker>
		<marker id="mrkr13-78" class="st9" v:arrowType="13" v:arrowSize="2" v:setback="32.9076" refX="32.9076" orient="auto"
				markerUnits="strokeWidth" overflow="visible">
			<use xlink:href="#lend13" transform="scale(11.08) "/>
		</marker>
	</defs>
	<g v:mID="0" v:index="1" v:groupContext="foregroundPage">
		<v:custProps>
			<v:cp v:nameU="AskOnDrop" v:lbl="Pytaj przy upuszczaniu" v:type="3" v:format="&#34;" v:langID="1045" v:cal="0"
					v:val="VT0(0):5"/>
		</v:custProps>
		<v:userDefs>
			<v:ud v:nameU="LPrec" v:val="VT0(2):26"/>
			<v:ud v:nameU="LUnits" v:val="VT0(0):26"/>
			<v:ud v:nameU="ShowUnits" v:val="VT0(0):26"/>
			<v:ud v:nameU="APrec" v:val="VT0(1):26"/>
			<v:ud v:nameU="AUnits" v:val="VT0(1):26"/>
		</v:userDefs>
		<title>Strona 1</title>
		<v:pageProperties v:drawingScale="39.3701" v:pageScale="3.93701" v:drawingUnits="6" v:shadowOffsetX="8.50394"
				v:shadowOffsetY="-8.50394"/>
		<v:layer v:name="Pomiar" v:index="0" v:print="false"/>
		<v:layer v:name="Wymiary" v:index="1"/>
		<v:layer v:name="Kontener" v:index="2"/>
		<v:layer v:name="Łącznik" v:index="3"/>
		<v:layer v:name="Instalacje elektryczne" v:index="4"/>
		<g id="shape1-1" v:mID="1" v:groupContext="shape" transform="translate(174.969,-174.159)">
			<title>Trójkąt — podstawa, wysokość</title>
			<v:userDefs>
				<v:ud v:nameU="visVersion" v:val="VT0(14):26"/>
			</v:userDefs>
			<path d="M0 332.61 L56.69 332.61 L28.35 261.75 L0 332.61 Z" class="st1"/>
		</g>
		<g id="shape2-3" v:mID="2" v:groupContext="shape" transform="translate(33.2367,-245.025)">
			<title>Prostokąt</title>
			<v:userDefs>
				<v:ud v:nameU="visVersion" v:val="VT0(14):26"/>
			</v:userDefs>
			<rect x="0" y="304.268" width="340.157" height="28.3465" class="st1"/>
		</g>
		<g id="shape3-5" v:mID="3" v:groupContext="shape" transform="translate(196.229,-237.938)">
			<title>Okrąg, elipsa</title>
			<v:userDefs>
				<v:ud v:nameU="visVersion" v:val="VT0(14):26"/>
			</v:userDefs>
			<path d="M0 325.53 A7.08661 7.08661 0 0 1 14.17 325.53 A7.08661 7.08661 0 1 1 0 325.53 Z" class="st2"/>
		</g>
		<g id="shape4-7" v:mID="4" v:groupContext="shape" transform="translate(306.78,-129.513)">
			<title>Trójkąt — podstawa, wysokość.4</title>
			<v:userDefs>
				<v:ud v:nameU="visVersion" v:val="VT0(14):26"/>
			</v:userDefs>
			<path d="M0 332.61 L56.69 332.61 L28.35 275.92 L0 332.61 Z" class="st1"/>
		</g>
		<g id="shape6-9" v:mID="6" v:groupContext="shape" transform="translate(335.097,-184.08)">
			<title>Prostokąt.6</title>
			<v:userDefs>
				<v:ud v:nameU="visVersion" v:val="VT0(14):26"/>
			</v:userDefs>
			<rect x="0" y="326.945" width="45.3543" height="5.66929" class="st1"/>
		</g>
		<g id="shape5-11" v:mID="5" v:groupContext="shape" transform="translate(328.04,-179.119)">
			<title>Okrąg, elipsa.5</title>
			<v:userDefs>
				<v:ud v:nameU="visVersion" v:val="VT0(14):26"/>
			</v:userDefs>
			<path d="M0 325.53 A7.08661 7.08661 0 0 1 14.17 325.53 A7.08661 7.08661 0 1 1 0 325.53 Z" class="st2"/>
		</g>
		<g id="shape7-13" v:mID="7" v:groupContext="shape" transform="translate(681.919,-4.11683) rotate(75)">
			<title>Prostokąt.7</title>
			<v:userDefs>
				<v:ud v:nameU="visVersion" v:val="VT0(14):26"/>
			</v:userDefs>
			<rect x="0" y="326.945" width="68.0315" height="5.66929" class="st1"/>
		</g>
		<g id="shape9-15" v:mID="9" v:groupContext="shape" transform="translate(359.221,-246.442)">
			<title>Okrąg, elipsa.9</title>
			<v:userDefs>
				<v:ud v:nameU="visVersion" v:val="VT0(14):26"/>
			</v:userDefs>
			<path d="M0 327.65 A4.96063 4.96063 0 0 1 9.92 327.65 A4.96063 4.96063 0 1 1 0 327.65 Z" class="st2"/>
		</g>
		<g id="shape8-17" v:mID="8" v:groupContext="shape" transform="translate(374.811,-182.663)">
			<title>Okrąg, elipsa.8</title>
			<v:userDefs>
				<v:ud v:nameU="visVersion" v:val="VT0(14):26"/>
			</v:userDefs>
			<path d="M0 327.65 A4.96063 4.96063 0 0 1 9.92 327.65 A4.96063 4.96063 0 1 1 0 327.65 Z" class="st2"/>
		</g>
		<g id="shape10-19" v:mID="10" v:groupContext="shape" transform="translate(330.166,-181.245)">
			<title>Okrąg, elipsa.10</title>
			<v:userDefs>
				<v:ud v:nameU="visVersion" v:val="VT0(14):26"/>
			</v:userDefs>
			<path d="M0 327.65 A4.96063 4.96063 0 0 1 9.92 327.65 A4.96063 4.96063 0 1 1 0 327.65 Z" class="st2"/>
		</g>
		<g id="shape11-21" v:mID="11" v:groupContext="shape" transform="translate(33.2367,-273.371)">
			<title>Trójkąt — dowolny</title>
			<v:userDefs>
				<v:ud v:nameU="visVersion" v:val="VT0(14):26"/>
			</v:userDefs>
			<path d="M0 304.27 L19.84 318.44 L0 332.61 L0 304.27 Z" class="st3"/>
		</g>
		<g id="shape12-23" v:mID="12" v:groupContext="shape" transform="translate(353.552,-273.371)">
			<title>Trójkąt — dowolny.12</title>
			<v:userDefs>
				<v:ud v:nameU="visVersion" v:val="VT0(14):26"/>
			</v:userDefs>
			<path d="M0 318.44 L19.84 304.27 L19.84 332.61 L0 318.44 Z" class="st3"/>
		</g>
		<g id="shape13-25" v:mID="13" v:groupContext="shape" transform="translate(189.142,-273.371)">
			<title>Arkusz.13</title>
			<ellipse cx="14.1732" cy="318.441" rx="14.1732" ry="14.1732" class="st4"/>
		</g>
		<g id="shape14-27" v:mID="14" v:groupContext="shape" transform="translate(72.9217,-273.371)">
			<title>Łuk — 3 punkty</title>
			<v:userDefs>
				<v:ud v:nameU="visVersion" v:val="VT0(14):26"/>
			</v:userDefs>
			<path d="M5.67 304.27 A20.5512 20.5512 -180 0 0 5.67 332.61" class="st5"/>
		</g>
		<g id="shape15-30" v:mID="15" v:groupContext="shape" transform="translate(101.268,-273.371)">
			<title>Łuk — 3 punkty.15</title>
			<v:userDefs>
				<v:ud v:nameU="visVersion" v:val="VT0(14):26"/>
			</v:userDefs>
			<path d="M5.67 304.27 A20.5512 20.5512 -180 0 0 5.67 332.61" class="st5"/>
		</g>
		<g id="shape16-33" v:mID="16" v:groupContext="shape" transform="translate(129.615,-273.371)">
			<title>Łuk — 3 punkty.16</title>
			<v:userDefs>
				<v:ud v:nameU="visVersion" v:val="VT0(14):26"/>
			</v:userDefs>
			<path d="M5.67 304.27 A20.5512 20.5512 -180 0 0 5.67 332.61" class="st5"/>
		</g>
		<g id="shape17-36" v:mID="17" v:groupContext="shape" transform="translate(328.04,-273.371)">
			<title>Łuk — 3 punkty.17</title>
			<v:userDefs>
				<v:ud v:nameU="visVersion" v:val="VT0(14):26"/>
			</v:userDefs>
			<path d="M0 304.27 A20.5512 20.5512 0 0 1 0 332.61" class="st5"/>
		</g>
		<g id="shape18-39" v:mID="18" v:groupContext="shape" transform="translate(299.693,-273.371)">
			<title>Łuk — 3 punkty.18</title>
			<v:userDefs>
				<v:ud v:nameU="visVersion" v:val="VT0(14):26"/>
			</v:userDefs>
			<path d="M0 304.27 A20.5512 20.5512 0 0 1 0 332.61" class="st5"/>
		</g>
		<g id="shape19-42" v:mID="19" v:groupContext="shape" transform="translate(271.347,-273.371)">
			<title>Łuk — 3 punkty.19</title>
			<v:userDefs>
				<v:ud v:nameU="visVersion" v:val="VT0(14):26"/>
			</v:userDefs>
			<path d="M0 304.27 A20.5512 20.5512 0 0 1 0 332.61" class="st5"/>
		</g>
		<g id="shape20-45" v:mID="20" v:groupContext="shape" transform="translate(180.638,-68.0315)">
			<title>Prostokąt.20</title>
			<desc>PLC</desc>
			<v:userDefs>
				<v:ud v:nameU="visVersion" v:val="VT0(14):26"/>
			</v:userDefs>
			<v:textBlock v:margins="rect(0,0,0,0)" v:tabSpace="42.5197"/>
			<v:textRect cx="22.6772" cy="309.937" width="45.36" height="45.3543"/>
			<rect x="0" y="287.26" width="45.3543" height="45.3543" class="st6"/>
			<text x="12.39" y="314.14" class="st7" v:langID="1045"><v:paragraph v:horizAlign="1"/><v:tabList/>PLC</text>		</g>
		<g id="shape21-48" v:mID="21" v:groupContext="shape" v:layerMember="3" transform="translate(33.2367,-287.545)">
			<title>Łącznik dynamiczny</title>
			<path d="M0 332.61 L-22.68 332.61 L-22.68 529.45 L139.09 529.45" class="st8"/>
		</g>
		<g id="shape22-54" v:mID="22" v:groupContext="shape" v:layerMember="3" transform="translate(373.394,-293.214)">
			<title>Łącznik dynamiczny.22</title>
			<path d="M0 338.28 L10.77 338.28 L10.77 315.04 L-362.83 315.04 L-362.83 341.12" class="st10"/>
		</g>
		<g id="shape23-57" v:mID="23" v:groupContext="shape" transform="translate(126.78,-313.056)">
			<title>Arkusz.23</title>
			<desc>Czujniki optyczne odległości</desc>
			<v:textBlock v:margins="rect(4,4,4,4)" v:tabSpace="42.5197"/>
			<v:textRect cx="76.5354" cy="324.11" width="153.08" height="17.0079"/>
			<rect x="0" y="315.606" width="153.071" height="17.0079" class="st11"/>
			<text x="8.53" y="327.71" class="st12" v:langID="1045"><v:paragraph v:horizAlign="1"/><v:tabList/>Czujniki optyczne odległości</text>		</g>
		<g id="shape24-60" v:mID="24" v:groupContext="shape" v:layerMember="3" transform="translate(33.2367,-245.025)">
			<title>Łącznik dynamiczny.24</title>
			<path d="M0 332.61 L0 477.86 L139.09 477.86" class="st8"/>
		</g>
		<g id="shape25-65" v:mID="25" v:groupContext="shape" v:layerMember="3" transform="translate(328.04,-186.206)">
			<title>Łącznik dynamiczny.25</title>
			<path d="M0 332.61 L-85.04 332.61 L-85.04 347.5 L-124.72 347.5 L-124.72 397.12" class="st8"/>
		</g>
		<g id="shape26-70" v:mID="26" v:groupContext="shape" transform="translate(387.567,-128.804)">
			<title>Prostokąt.26</title>
			<desc>Mostek H</desc>
			<v:userDefs>
				<v:ud v:nameU="visVersion" v:val="VT0(14):26"/>
			</v:userDefs>
			<v:textBlock v:margins="rect(0,0,0,0)" v:tabSpace="42.5197"/>
			<v:textRect cx="27.3187" cy="322.693" width="54.64" height="19.8425"/>
			<rect x="0" y="312.772" width="54.6373" height="19.8425" class="st13"/>
			<text x="3.86" y="326.29" class="st12" v:langID="1045"><v:paragraph v:horizAlign="1"/><v:tabList/>Mostek H</text>		</g>
		<g id="shape27-73" v:mID="27" v:groupContext="shape" v:layerMember="3" transform="translate(340.137,-181.195)">
			<title>Łącznik dynamiczny.27</title>
			<path d="M6.78 337.27 L6.85 337.32 L47.43 365.16" class="st14"/>
		</g>
		<g id="shape28-79" v:mID="28" v:groupContext="shape" v:layerMember="3" transform="translate(225.993,-90.7087)">
			<title>Łącznik dynamiczny.28</title>
			<path d="M0 332.61 L188.89 332.61 L188.89 302.83" class="st8"/>
		</g>
		<g id="shape29-84" v:mID="29" v:groupContext="shape" transform="translate(28.276,-240.064)">
			<title>Okrąg, elipsa.29</title>
			<v:userDefs>
				<v:ud v:nameU="visVersion" v:val="VT0(14):26"/>
			</v:userDefs>
			<path d="M0 327.65 A4.96063 4.96063 0 0 1 9.92 327.65 A4.96063 4.96063 0 1 1 0 327.65 Z" class="st15"/>
		</g>
		<g id="shape30-86" v:mID="30" v:groupContext="shape" transform="translate(27.5674,-225.182)">
			<title>Arkusz.30</title>
			<desc>Czujnik bazowania</desc>
			<v:textBlock v:margins="rect(4,4,4,4)" v:tabSpace="42.5197"/>
			<v:textRect cx="51.0236" cy="324.11" width="102.05" height="17.0079"/>
			<rect x="0" y="315.606" width="102.047" height="17.0079" class="st11"/>
			<text x="6.13" y="327.71" class="st12" v:langID="1045"><v:paragraph v:horizAlign="1"/><v:tabList/>Czujnik bazowania</text>		</g>
		<g id="shape31-89" v:mID="31" v:groupContext="shape" transform="translate(274.182,-185.497)">
			<title>Arkusz.31</title>
			<desc>Enkoder</desc>
			<v:textBlock v:margins="rect(4,4,4,4)" v:tabSpace="42.5197"/>
			<v:textRect cx="25.5118" cy="324.11" width="51.03" height="17.0079"/>
			<rect x="0" y="315.606" width="51.0236" height="17.0079" class="st11"/>
			<text x="5.31" y="327.71" class="st12" v:langID="1045"><v:paragraph v:horizAlign="1"/><v:tabList/>Enkoder</text>		</g>
		<g id="shape32-92" v:mID="32" v:groupContext="shape" transform="translate(5.66929,-33.2211)">
			<title>Arkusz.32</title>
			<desc>Wejścia analogowe \SIrange{0}{10}{\volt}</desc>
			<v:textBlock v:margins="rect(4,4,4,4)" v:tabSpace="42.5197"/>
			<v:textRect cx="51.0236" cy="304.268" width="102.05" height="56.6929"/>
			<rect x="0" y="275.921" width="102.047" height="56.6929" class="st11"/>
			<text x="32.13" y="286.27" class="st12" v:langID="1045"><v:paragraph v:horizAlign="1"/><v:tabList/>Wejścia <tspan
						x="20.65" dy="1.2em" class="st16">analogowe </tspan>\<tspan x="11.95" dy="1.2em" class="st16">SIrange</tspan>{0}{10}{\<tspan
						x="39.88" dy="1.2em" class="st16">volt</tspan>}</text>		</g>
		<g id="shape33-98" v:mID="33" v:groupContext="shape" transform="translate(51.0236,-98.418)">
			<title>Arkusz.33</title>
			<desc>Wejścia dyskretne</desc>
			<v:textBlock v:margins="rect(4,4,4,4)" v:tabSpace="42.5197"/>
			<v:textRect cx="51.0236" cy="324.11" width="102.05" height="17.0079"/>
			<rect x="0" y="315.606" width="102.047" height="17.0079" class="st11"/>
			<text x="6.61" y="327.71" class="st12" v:langID="1045"><v:paragraph v:horizAlign="1"/><v:tabList/>Wejścia dyskretne</text>		</g>
		<g id="shape34-101" v:mID="34" v:groupContext="shape" transform="translate(86.4567,-139.52)">
			<title>Arkusz.34</title>
			<desc>Wejścia dyskretne HSC</desc>
			<v:textBlock v:margins="rect(4,4,4,4)" v:tabSpace="42.5197"/>
			<v:textRect cx="60.9449" cy="325.528" width="121.89" height="14.1732"/>
			<rect x="0" y="318.441" width="121.89" height="14.1732" class="st11"/>
			<text x="5.48" y="329.13" class="st12" v:langID="1045"><v:paragraph v:horizAlign="1"/><v:tabList/>Wejścia dyskretne HSC</text>		</g>
		<g id="shape35-104" v:mID="35" v:groupContext="shape" transform="translate(238.11,-75.7408)">
			<title>Arkusz.35</title>
			<desc>Wyjścia dyskretne (PWM, kierunek)</desc>
			<v:textBlock v:margins="rect(4,4,4,4)" v:tabSpace="42.5197"/>
			<v:textRect cx="51.0236" cy="319.858" width="102.05" height="25.5118"/>
			<rect x="0" y="307.102" width="102.047" height="25.5118" class="st11"/>
			<text x="6.88" y="316.26" class="st12" v:langID="1045"><v:paragraph v:horizAlign="1"/><v:tabList/>Wyjścia dyskretne <tspan
						x="9.76" dy="1.2em" class="st16">(</tspan>PWM, kierunek)</text>		</g>
		<g id="group37-108" transform="translate(318.119,-23.9225)" v:mID="37" v:groupContext="group" v:layerMember="4">
			<v:userDefs>
				<v:ud v:nameU="Type" v:val="VT0(0):26"/>
				<v:ud v:nameU="visVersion" v:val="VT0(14):26"/>
				<v:ud v:nameU="visDescription" v:val="VT4(Przedstawia lampę standardową lub sygnałową.)"/>
			</v:userDefs>
			<title>Lampa 2</title>
			<g id="shape38-109" v:mID="38" v:groupContext="shape" v:layerMember="4">
				<title>Arkusz.38</title>
				<path d="M0 317.02 A15.5906 15.5906 0 0 1 31.18 317.02 A15.5906 15.5906 0 1 1 0 317.02 Z" class="st17"/>
				<path d="M4.57 306 L26.61 328.05" class="st5"/>
				<path d="M26.61 306 L4.57 328.05" class="st5"/>
				<path d="M0 317.02 A15.5906 15.5906 0 0 1 31.18 317.02 A15.5906 15.5906 0 1 1 0 317.02" class="st5"/>
			</g>
		</g>
		<g id="group41-114" transform="translate(104.882,-2.04)" v:mID="41" v:groupContext="group">
			<title>Arkusz.41</title>
			<g id="shape36-115" v:mID="36" v:groupContext="shape">
				<title>Prostokąt.36</title>
				<v:userDefs>
					<v:ud v:nameU="visVersion" v:val="VT0(14):26"/>
				</v:userDefs>
				<rect x="0" y="270.252" width="28.3465" height="62.3622" class="st2"/>
			</g>
			<g id="shape39-117" v:mID="39" v:groupContext="shape" transform="translate(5.66929,-5.66929)">
				<title>Okrąg, elipsa.39</title>
				<v:userDefs>
					<v:ud v:nameU="visVersion" v:val="VT0(14):26"/>
				</v:userDefs>
				<path d="M0 324.11 A8.50394 8.50394 0 1 1 17.01 324.11 A8.50394 8.50394 0 0 1 0 324.11 Z" class="st18"/>
			</g>
			<g id="shape40-119" v:mID="40" v:groupContext="shape" transform="translate(-318.441,332.614) rotate(-90)">
				<title>Linia przedłużana</title>
				<v:userDefs>
					<v:ud v:nameU="AntiScale" v:val="VT0(10):26"/>
					<v:ud v:nameU="visVersion" v:val="VT0(14):26"/>
				</v:userDefs>
				<path d="M34.02 332.61 L51.02 332.61" class="st19"/>
			</g>
		</g>
		<g id="shape42-122" v:mID="42" v:groupContext="shape" v:layerMember="3" transform="translate(133.228,-33.2211)">
			<title>Łącznik dynamiczny.42</title>
			<path d="M0 332.61 L58.75 332.61 L58.75 306.11" class="st8"/>
		</g>
		<g id="shape43-127" v:mID="43" v:groupContext="shape" v:layerMember="3" transform="translate(214.654,-68.0315)">
			<title>Łącznik dynamiczny.43</title>
			<path d="M0 332.61 L0 361.13 L95.15 361.13" class="st8"/>
		</g>
		<g id="shape44-132" v:mID="44" v:groupContext="shape" transform="translate(136.063,-16.2132)">
			<title>Arkusz.44</title>
			<desc>Wejścia dyskretne</desc>
			<v:textBlock v:margins="rect(4,4,4,4)" v:tabSpace="42.5197"/>
			<v:textRect cx="51.0236" cy="324.11" width="102.05" height="17.0079"/>
			<rect x="0" y="315.606" width="102.047" height="17.0079" class="st11"/>
			<text x="6.61" y="327.71" class="st12" v:langID="1045"><v:paragraph v:horizAlign="1"/><v:tabList/>Wejścia dyskretne</text>		</g>
		<g id="shape45-135" v:mID="45" v:groupContext="shape" transform="translate(209.764,-41.725)">
			<title>Arkusz.45</title>
			<desc>Wyjście dyskretne</desc>
			<v:textBlock v:margins="rect(4,4,4,4)" v:tabSpace="42.5197"/>
			<v:textRect cx="51.0236" cy="324.11" width="102.05" height="17.0079"/>
			<rect x="0" y="315.606" width="102.047" height="17.0079" class="st11"/>
			<text x="6.76" y="327.71" class="st12" v:langID="1045"><v:paragraph v:horizAlign="1"/><v:tabList/>Wyjście dyskretne</text>		</g>
	</g>
</svg>
