<?xml version="1.0" encoding="UTF-8"?>
<!DOCTYPE svg PUBLIC "-//W3C//DTD SVG 1.1//EN" "http://www.w3.org/Graphics/SVG/1.1/DTD/svg11.dtd">
<svg width="283mm" height="148mm" viewBox="0 0 28300 14800" version="1.1" xmlns="http://www.w3.org/2000/svg" stroke-width="28.222" stroke-linejoin="round" xml:space="preserve">
 <path fill="rgb(255,255,255)" stroke="none" d="M 14229,14803 L 94,14803 94,1 28363,1 28363,14803 14229,14803 Z"/>
 <path fill="none" stroke="rgb(179,179,179)" stroke-linejoin="round" d="M 15246,11718 L 2881,11718 2881,2024 27611,2024 27611,11718 15246,11718 Z"/>
 <path fill="none" stroke="rgb(179,179,179)" stroke-linejoin="round" d="M 2881,2023 L 2881,11717"/>
 <path fill="none" stroke="rgb(179,179,179)" stroke-linejoin="round" d="M 6414,2023 L 6414,11717"/>
 <path fill="none" stroke="rgb(179,179,179)" stroke-linejoin="round" d="M 9947,2023 L 9947,11717"/>
 <path fill="none" stroke="rgb(179,179,179)" stroke-linejoin="round" d="M 13480,2023 L 13480,11717"/>
 <path fill="none" stroke="rgb(179,179,179)" stroke-linejoin="round" d="M 17012,2023 L 17012,11717"/>
 <path fill="none" stroke="rgb(179,179,179)" stroke-linejoin="round" d="M 20545,2023 L 20545,11717"/>
 <path fill="none" stroke="rgb(179,179,179)" stroke-linejoin="round" d="M 24078,2023 L 24078,11717"/>
 <path fill="none" stroke="rgb(179,179,179)" stroke-linejoin="round" d="M 27611,2023 L 27611,11717"/>
 <path fill="none" stroke="rgb(179,179,179)" stroke-linejoin="round" d="M 27611,11717 L 2881,11717"/>
 <path fill="none" stroke="rgb(179,179,179)" stroke-linejoin="round" d="M 27611,10639 L 2881,10639"/>
 <path fill="none" stroke="rgb(179,179,179)" stroke-linejoin="round" d="M 27611,9562 L 2881,9562"/>
 <path fill="none" stroke="rgb(179,179,179)" stroke-linejoin="round" d="M 27611,8485 L 2881,8485"/>
 <path fill="none" stroke="rgb(179,179,179)" stroke-linejoin="round" d="M 27611,7408 L 2881,7408"/>
 <path fill="none" stroke="rgb(179,179,179)" stroke-linejoin="round" d="M 27611,6331 L 2881,6331"/>
 <path fill="none" stroke="rgb(179,179,179)" stroke-linejoin="round" d="M 27611,5254 L 2881,5254"/>
 <path fill="none" stroke="rgb(179,179,179)" stroke-linejoin="round" d="M 27611,4177 L 2881,4177"/>
 <path fill="none" stroke="rgb(179,179,179)" stroke-linejoin="round" d="M 27611,3100 L 2881,3100"/>
 <path fill="none" stroke="rgb(179,179,179)" stroke-linejoin="round" d="M 27611,2023 L 2881,2023"/>
 <path fill="none" stroke="rgb(179,179,179)" stroke-linejoin="round" d="M 2881,11867 L 2881,11717"/>
 <path fill="none" stroke="rgb(179,179,179)" stroke-linejoin="round" d="M 2881,11867 L 2881,11717"/>
 <path fill="none" stroke="rgb(179,179,179)" stroke-linejoin="round" d="M 6414,11867 L 6414,11717"/>
 <path fill="none" stroke="rgb(179,179,179)" stroke-linejoin="round" d="M 6414,11867 L 6414,11717"/>
 <path fill="none" stroke="rgb(179,179,179)" stroke-linejoin="round" d="M 9947,11867 L 9947,11717"/>
 <path fill="none" stroke="rgb(179,179,179)" stroke-linejoin="round" d="M 9947,11867 L 9947,11717"/>
 <path fill="none" stroke="rgb(179,179,179)" stroke-linejoin="round" d="M 13480,11867 L 13480,11717"/>
 <path fill="none" stroke="rgb(179,179,179)" stroke-linejoin="round" d="M 13480,11867 L 13480,11717"/>
 <path fill="none" stroke="rgb(179,179,179)" stroke-linejoin="round" d="M 17012,11867 L 17012,11717"/>
 <path fill="none" stroke="rgb(179,179,179)" stroke-linejoin="round" d="M 17012,11867 L 17012,11717"/>
 <path fill="none" stroke="rgb(179,179,179)" stroke-linejoin="round" d="M 20545,11867 L 20545,11717"/>
 <path fill="none" stroke="rgb(179,179,179)" stroke-linejoin="round" d="M 20545,11867 L 20545,11717"/>
 <path fill="none" stroke="rgb(179,179,179)" stroke-linejoin="round" d="M 24078,11867 L 24078,11717"/>
 <path fill="none" stroke="rgb(179,179,179)" stroke-linejoin="round" d="M 24078,11867 L 24078,11717"/>
 <path fill="none" stroke="rgb(179,179,179)" stroke-linejoin="round" d="M 27611,11867 L 27611,11717"/>
 <path fill="none" stroke="rgb(179,179,179)" stroke-linejoin="round" d="M 27611,11867 L 27611,11717"/>
 <path fill="none" stroke="rgb(179,179,179)" stroke-linejoin="round" d="M 2881,11717 L 27611,11717"/>
 <path fill="none" stroke="rgb(179,179,179)" stroke-linejoin="round" d="M 2731,11717 L 2881,11717"/>
 <path fill="none" stroke="rgb(179,179,179)" stroke-linejoin="round" d="M 2731,11717 L 2881,11717"/>
 <path fill="none" stroke="rgb(179,179,179)" stroke-linejoin="round" d="M 2731,10639 L 2881,10639"/>
 <path fill="none" stroke="rgb(179,179,179)" stroke-linejoin="round" d="M 2731,10639 L 2881,10639"/>
 <path fill="none" stroke="rgb(179,179,179)" stroke-linejoin="round" d="M 2731,9562 L 2881,9562"/>
 <path fill="none" stroke="rgb(179,179,179)" stroke-linejoin="round" d="M 2731,9562 L 2881,9562"/>
 <path fill="none" stroke="rgb(179,179,179)" stroke-linejoin="round" d="M 2731,8485 L 2881,8485"/>
 <path fill="none" stroke="rgb(179,179,179)" stroke-linejoin="round" d="M 2731,8485 L 2881,8485"/>
 <path fill="none" stroke="rgb(179,179,179)" stroke-linejoin="round" d="M 2731,7408 L 2881,7408"/>
 <path fill="none" stroke="rgb(179,179,179)" stroke-linejoin="round" d="M 2731,7408 L 2881,7408"/>
 <path fill="none" stroke="rgb(179,179,179)" stroke-linejoin="round" d="M 2731,6331 L 2881,6331"/>
 <path fill="none" stroke="rgb(179,179,179)" stroke-linejoin="round" d="M 2731,6331 L 2881,6331"/>
 <path fill="none" stroke="rgb(179,179,179)" stroke-linejoin="round" d="M 2731,5254 L 2881,5254"/>
 <path fill="none" stroke="rgb(179,179,179)" stroke-linejoin="round" d="M 2731,5254 L 2881,5254"/>
 <path fill="none" stroke="rgb(179,179,179)" stroke-linejoin="round" d="M 2731,4177 L 2881,4177"/>
 <path fill="none" stroke="rgb(179,179,179)" stroke-linejoin="round" d="M 2731,4177 L 2881,4177"/>
 <path fill="none" stroke="rgb(179,179,179)" stroke-linejoin="round" d="M 2731,3100 L 2881,3100"/>
 <path fill="none" stroke="rgb(179,179,179)" stroke-linejoin="round" d="M 2731,3100 L 2881,3100"/>
 <path fill="none" stroke="rgb(179,179,179)" stroke-linejoin="round" d="M 2731,2023 L 2881,2023"/>
 <path fill="none" stroke="rgb(179,179,179)" stroke-linejoin="round" d="M 2731,2023 L 2881,2023"/>
 <path fill="none" stroke="rgb(179,179,179)" stroke-linejoin="round" d="M 2881,11717 L 2881,2023"/>
 <path fill="none" stroke="rgb(255,66,14)" stroke-width="80" stroke-linejoin="round" d="M 4294,3760 L 5000,2708 5707,4184 6414,5505 7120,6299 7827,7048 8533,7542 9240,7945 9947,8356 10653,8684 11360,8922 12066,9102 12773,9328 13480,9464 14186,9594 14892,9770 15598,9886 16305,9981 17012,10071 17718,10229 18425,10266 19131,10346 19838,10424 20545,10474 21251,10521 21958,10556 22664,10613 23371,10648 24078,10688 24784,10715 25491,10743"/>
 <path fill="none" stroke="rgb(0,69,134)" stroke-width="80" stroke-linejoin="round" d="M 4294,3336 L 5000,2757 5707,3810 6414,5197 7120,6098 7827,7014 8533,7454 9240,7807 9947,8200 10653,8590 11360,8823 12066,8958 12773,9180 13480,9356 14186,9491 14892,9622 15598,9824 16305,9910 17012,9989 17718,10109 18425,10171 19131,10242 19838,10302 20545,10368 21251,10417 21958,10469 22664,10517 23371,10559 24078,10609 24784,10661 25491,10682"/>
 <text class="TextShape"><tspan class="TextParagraph" font-family="Liberation Sans, sans-serif" font-size="353px" font-weight="400"><tspan class="TextPosition" x="2788" y="12285"><tspan fill="rgb(0,0,0)" stroke="none">0</tspan></tspan></tspan></text>
 <text class="TextShape"><tspan class="TextParagraph" font-family="Liberation Sans, sans-serif" font-size="353px" font-weight="400"><tspan class="TextPosition" x="6321" y="12285"><tspan fill="rgb(0,0,0)" stroke="none">5</tspan></tspan></tspan></text>
 <text class="TextShape"><tspan class="TextParagraph" font-family="Liberation Sans, sans-serif" font-size="353px" font-weight="400"><tspan class="TextPosition" x="9762" y="12285"><tspan fill="rgb(0,0,0)" stroke="none">10</tspan></tspan></tspan></text>
 <text class="TextShape"><tspan class="TextParagraph" font-family="Liberation Sans, sans-serif" font-size="353px" font-weight="400"><tspan class="TextPosition" x="13295" y="12285"><tspan fill="rgb(0,0,0)" stroke="none">15</tspan></tspan></tspan></text>
 <text class="TextShape"><tspan class="TextParagraph" font-family="Liberation Sans, sans-serif" font-size="353px" font-weight="400"><tspan class="TextPosition" x="16828" y="12285"><tspan fill="rgb(0,0,0)" stroke="none">20</tspan></tspan></tspan></text>
 <text class="TextShape"><tspan class="TextParagraph" font-family="Liberation Sans, sans-serif" font-size="353px" font-weight="400"><tspan class="TextPosition" x="20361" y="12285"><tspan fill="rgb(0,0,0)" stroke="none">25</tspan></tspan></tspan></text>
 <text class="TextShape"><tspan class="TextParagraph" font-family="Liberation Sans, sans-serif" font-size="353px" font-weight="400"><tspan class="TextPosition" x="23894" y="12285"><tspan fill="rgb(0,0,0)" stroke="none">30</tspan></tspan></tspan></text>
 <text class="TextShape"><tspan class="TextParagraph" font-family="Liberation Sans, sans-serif" font-size="353px" font-weight="400"><tspan class="TextPosition" x="27427" y="12285"><tspan fill="rgb(0,0,0)" stroke="none">35</tspan></tspan></tspan></text>
 <text class="TextShape"><tspan class="TextParagraph" font-family="Liberation Sans, sans-serif" font-size="353px" font-weight="400"><tspan class="TextPosition" x="2446" y="11838"><tspan fill="rgb(0,0,0)" stroke="none">0</tspan></tspan></tspan></text>
 <text class="TextShape"><tspan class="TextParagraph" font-family="Liberation Sans, sans-serif" font-size="353px" font-weight="400"><tspan class="TextPosition" x="1890" y="10760"><tspan fill="rgb(0,0,0)" stroke="none">1000</tspan></tspan></tspan></text>
 <text class="TextShape"><tspan class="TextParagraph" font-family="Liberation Sans, sans-serif" font-size="353px" font-weight="400"><tspan class="TextPosition" x="1890" y="9683"><tspan fill="rgb(0,0,0)" stroke="none">2000</tspan></tspan></tspan></text>
 <text class="TextShape"><tspan class="TextParagraph" font-family="Liberation Sans, sans-serif" font-size="353px" font-weight="400"><tspan class="TextPosition" x="1890" y="8606"><tspan fill="rgb(0,0,0)" stroke="none">3000</tspan></tspan></tspan></text>
 <text class="TextShape"><tspan class="TextParagraph" font-family="Liberation Sans, sans-serif" font-size="353px" font-weight="400"><tspan class="TextPosition" x="1890" y="7529"><tspan fill="rgb(0,0,0)" stroke="none">4000</tspan></tspan></tspan></text>
 <text class="TextShape"><tspan class="TextParagraph" font-family="Liberation Sans, sans-serif" font-size="353px" font-weight="400"><tspan class="TextPosition" x="1890" y="6451"><tspan fill="rgb(0,0,0)" stroke="none">5000</tspan></tspan></tspan></text>
 <text class="TextShape"><tspan class="TextParagraph" font-family="Liberation Sans, sans-serif" font-size="353px" font-weight="400"><tspan class="TextPosition" x="1890" y="5374"><tspan fill="rgb(0,0,0)" stroke="none">6000</tspan></tspan></tspan></text>
 <text class="TextShape"><tspan class="TextParagraph" font-family="Liberation Sans, sans-serif" font-size="353px" font-weight="400"><tspan class="TextPosition" x="1890" y="4297"><tspan fill="rgb(0,0,0)" stroke="none">7000</tspan></tspan></tspan></text>
 <text class="TextShape"><tspan class="TextParagraph" font-family="Liberation Sans, sans-serif" font-size="353px" font-weight="400"><tspan class="TextPosition" x="1890" y="3220"><tspan fill="rgb(0,0,0)" stroke="none">8000</tspan></tspan></tspan></text>
 <text class="TextShape"><tspan class="TextParagraph" font-family="Liberation Sans, sans-serif" font-size="353px" font-weight="400"><tspan class="TextPosition" x="1890" y="2143"><tspan fill="rgb(0,0,0)" stroke="none">9000</tspan></tspan></tspan></text>
 <text class="TextShape"><tspan class="TextParagraph" font-family="Liberation Sans, sans-serif" font-size="635px" font-weight="400"><tspan class="TextPosition" x="7125" y="1205"><tspan fill="rgb(0,0,0)" stroke="none">Charakterystyka czujników Sharp GP2Y0A41SK0F</tspan></tspan></tspan></text>
 <path fill="none" stroke="rgb(0,69,134)" stroke-width="80" stroke-linejoin="round" d="M 6952,14239 L 7752,14239"/>
 <path fill="none" stroke="rgb(255,66,14)" stroke-width="80" stroke-linejoin="round" d="M 14220,14239 L 15019,14239"/>
 <text class="TextShape"><tspan class="TextParagraph" font-family="Liberation Sans, sans-serif" font-size="494px" font-weight="400"><tspan class="TextPosition" x="7860" y="14411"><tspan fill="rgb(0,0,0)" stroke="none">Wartość z czujnika lewego</tspan></tspan></tspan></text>
 <text class="TextShape"><tspan class="TextParagraph" font-family="Liberation Sans, sans-serif" font-size="494px" font-weight="400"><tspan class="TextPosition" x="15127" y="14411"><tspan fill="rgb(0,0,0)" stroke="none">Wartość z czujnika prawego</tspan></tspan></tspan></text>
 <text class="TextShape"><tspan class="TextParagraph" font-family="Liberation Sans, sans-serif" font-size="459px" font-weight="400"><tspan class="TextPosition" x="12515" y="13198"><tspan fill="rgb(0,0,0)" stroke="none">Odległość do kulki [cm]</tspan></tspan></tspan></text>
 <text class="TextShape" transform="translate(1080,9806) rotate(-90) translate(-1080,-9806)"><tspan class="TextParagraph" font-family="Liberation Sans, sans-serif" font-size="459px" font-weight="400"><tspan class="TextPosition" x="1080" y="9806"><tspan fill="rgb(0,0,0)" stroke="none">Wartość z czujnika po ADC</tspan></tspan></tspan></text>
</svg>