<?xml version="1.0" encoding="UTF-8"?>
<!DOCTYPE svg PUBLIC "-//W3C//DTD SVG 1.1//EN" "http://www.w3.org/Graphics/SVG/1.1/DTD/svg11.dtd">
<svg version="1.2" width="102.01mm" height="90.01mm" viewBox="5000 3000 10201 9001" preserveAspectRatio="xMidYMid" fill-rule="evenodd" stroke-width="28.222" stroke-linejoin="round" xmlns="http://www.w3.org/2000/svg" xmlns:ooo="http://xml.openoffice.org/svg/export" xmlns:xlink="http://www.w3.org/1999/xlink" xmlns:presentation="http://sun.com/xmlns/staroffice/presentation" xmlns:smil="http://www.w3.org/2001/SMIL20/" xmlns:anim="urn:oasis:names:tc:opendocument:xmlns:animation:1.0" xml:space="preserve">
 <defs class="ClipPathGroup">
  <clipPath id="presentation_clip_path" clipPathUnits="userSpaceOnUse">
   <rect x="5000" y="3000" width="10201" height="9001"/>
  </clipPath>
 </defs>
 <defs class="TextShapeIndex">
  <g ooo:slide="id1" ooo:id-list="id3 id4 id5 id6 id7 id8 id9 id10 id11 id12 id13 id14 id15 id16 id17 id18 id19"/>
 </defs>
 <defs class="EmbeddedBulletChars">
  <g id="bullet-char-template(57356)" transform="scale(0.00048828125,-0.00048828125)">
   <path d="M 580,1141 L 1163,571 580,0 -4,571 580,1141 Z"/>
  </g>
  <g id="bullet-char-template(57354)" transform="scale(0.00048828125,-0.00048828125)">
   <path d="M 8,1128 L 1137,1128 1137,0 8,0 8,1128 Z"/>
  </g>
  <g id="bullet-char-template(10146)" transform="scale(0.00048828125,-0.00048828125)">
   <path d="M 174,0 L 602,739 174,1481 1456,739 174,0 Z M 1358,739 L 309,1346 659,739 1358,739 Z"/>
  </g>
  <g id="bullet-char-template(10132)" transform="scale(0.00048828125,-0.00048828125)">
   <path d="M 2015,739 L 1276,0 717,0 1260,543 174,543 174,936 1260,936 717,1481 1274,1481 2015,739 Z"/>
  </g>
  <g id="bullet-char-template(10007)" transform="scale(0.00048828125,-0.00048828125)">
   <path d="M 0,-2 C -7,14 -16,27 -25,37 L 356,567 C 262,823 215,952 215,954 215,979 228,992 255,992 264,992 276,990 289,987 310,991 331,999 354,1012 L 381,999 492,748 772,1049 836,1024 860,1049 C 881,1039 901,1025 922,1006 886,937 835,863 770,784 769,783 710,716 594,584 L 774,223 C 774,196 753,168 711,139 L 727,119 C 717,90 699,76 672,76 641,76 570,178 457,381 L 164,-76 C 142,-110 111,-127 72,-127 30,-127 9,-110 8,-76 1,-67 -2,-52 -2,-32 -2,-23 -1,-13 0,-2 Z"/>
  </g>
  <g id="bullet-char-template(10004)" transform="scale(0.00048828125,-0.00048828125)">
   <path d="M 285,-33 C 182,-33 111,30 74,156 52,228 41,333 41,471 41,549 55,616 82,672 116,743 169,778 240,778 293,778 328,747 346,684 L 369,508 C 377,444 397,411 428,410 L 1163,1116 C 1174,1127 1196,1133 1229,1133 1271,1133 1292,1118 1292,1087 L 1292,965 C 1292,929 1282,901 1262,881 L 442,47 C 390,-6 338,-33 285,-33 Z"/>
  </g>
  <g id="bullet-char-template(9679)" transform="scale(0.00048828125,-0.00048828125)">
   <path d="M 813,0 C 632,0 489,54 383,161 276,268 223,411 223,592 223,773 276,916 383,1023 489,1130 632,1184 813,1184 992,1184 1136,1130 1245,1023 1353,916 1407,772 1407,592 1407,412 1353,268 1245,161 1136,54 992,0 813,0 Z"/>
  </g>
  <g id="bullet-char-template(8226)" transform="scale(0.00048828125,-0.00048828125)">
   <path d="M 346,457 C 273,457 209,483 155,535 101,586 74,649 74,723 74,796 101,859 155,911 209,963 273,989 346,989 419,989 480,963 531,910 582,859 608,796 608,723 608,648 583,586 532,535 482,483 420,457 346,457 Z"/>
  </g>
  <g id="bullet-char-template(8211)" transform="scale(0.00048828125,-0.00048828125)">
   <path d="M -4,459 L 1135,459 1135,606 -4,606 -4,459 Z"/>
  </g>
 </defs>
 <defs class="TextEmbeddedBitmaps"/>
 <g class="SlideGroup">
  <g>
   <g id="id1" class="Slide" clip-path="url(#presentation_clip_path)">
    <g class="Page">
     <g class="com.sun.star.drawing.PolyPolygonShape">
      <g id="id3">
       <rect class="BoundingBox" stroke="none" fill="none" x="4999" y="2999" width="5003" height="9003"/>
       <path fill="none" stroke="rgb(0,0,0)" d="M 5000,3000 L 10000,3000 10000,9000 9500,9000 9500,12000 5500,12000 5500,9000 5000,9000 5000,3000 Z"/>
      </g>
     </g>
     <g class="com.sun.star.drawing.CustomShape">
      <g id="id4">
       <rect class="BoundingBox" stroke="none" fill="none" x="9499" y="9499" width="203" height="2003"/>
       <path fill="none" stroke="rgb(0,0,0)" d="M 9600,11500 L 9500,11500 9500,9500 9700,9500 9700,11500 9600,11500 Z"/>
      </g>
     </g>
     <g class="com.sun.star.drawing.CustomShape">
      <g id="id5">
       <rect class="BoundingBox" stroke="none" fill="none" x="5299" y="9499" width="203" height="2003"/>
       <path fill="none" stroke="rgb(0,0,0)" d="M 5400,11500 L 5300,11500 5300,9500 5500,9500 5500,11500 5400,11500 Z"/>
      </g>
     </g>
     <g class="com.sun.star.drawing.CustomShape">
      <g id="id6">
       <rect class="BoundingBox" stroke="none" fill="none" x="6830" y="9199" width="1404" height="1404"/>
       <path fill="none" stroke="rgb(0,0,0)" d="M 7530,9200 C 7926,9200 8230,9503 8230,9899 8230,10295 7926,10599 7530,10599 7134,10599 6831,10295 6831,9899 6831,9503 7134,9200 7530,9200 Z"/>
       <path fill="none" stroke="rgb(0,0,0)" d="M 6831,9200 L 6831,9200 Z"/>
       <path fill="none" stroke="rgb(0,0,0)" d="M 8232,10601 L 8232,10601 Z"/>
      </g>
     </g>
     <g class="com.sun.star.drawing.CustomShape">
      <g id="id7">
       <rect class="BoundingBox" stroke="none" fill="none" x="5600" y="3600" width="614" height="614"/>
       <path fill="none" stroke="rgb(0,0,0)" d="M 5906,3601 C 6079,3601 6211,3733 6211,3906 6211,4079 6079,4211 5906,4211 5733,4211 5601,4079 5601,3906 5601,3733 5733,3601 5906,3601 Z"/>
       <path fill="none" stroke="rgb(0,0,0)" d="M 5601,3601 L 5601,3601 Z"/>
       <path fill="none" stroke="rgb(0,0,0)" d="M 6212,4212 L 6212,4212 Z"/>
      </g>
     </g>
     <g class="com.sun.star.drawing.CustomShape">
      <g id="id8">
       <rect class="BoundingBox" stroke="none" fill="none" x="5599" y="5599" width="614" height="614"/>
       <path fill="none" stroke="rgb(0,0,0)" d="M 5905,5600 C 6078,5600 6210,5732 6210,5905 6210,6078 6078,6210 5905,6210 5732,6210 5600,6078 5600,5905 5600,5732 5732,5600 5905,5600 Z"/>
       <path fill="none" stroke="rgb(0,0,0)" d="M 5600,5600 L 5600,5600 Z"/>
       <path fill="none" stroke="rgb(0,0,0)" d="M 6211,6211 L 6211,6211 Z"/>
      </g>
     </g>
     <g class="com.sun.star.drawing.CustomShape">
      <g id="id9">
       <rect class="BoundingBox" stroke="none" fill="none" x="5599" y="7599" width="614" height="614"/>
       <path fill="none" stroke="rgb(0,0,0)" d="M 5905,7600 C 6078,7600 6210,7732 6210,7905 6210,8078 6078,8210 5905,8210 5732,8210 5600,8078 5600,7905 5600,7732 5732,7600 5905,7600 Z"/>
       <path fill="none" stroke="rgb(0,0,0)" d="M 5600,7600 L 5600,7600 Z"/>
       <path fill="none" stroke="rgb(0,0,0)" d="M 6211,8211 L 6211,8211 Z"/>
      </g>
     </g>
     <g class="com.sun.star.drawing.CustomShape">
      <g id="id10">
       <rect class="BoundingBox" stroke="none" fill="none" x="5599" y="4600" width="614" height="614"/>
       <path fill="none" stroke="rgb(0,0,0)" d="M 5905,4601 C 6078,4601 6210,4733 6210,4906 6210,5079 6078,5211 5905,5211 5732,5211 5600,5079 5600,4906 5600,4733 5732,4601 5905,4601 Z"/>
       <path fill="none" stroke="rgb(0,0,0)" d="M 5600,4601 L 5600,4601 Z"/>
       <path fill="none" stroke="rgb(0,0,0)" d="M 6211,5212 L 6211,5212 Z"/>
      </g>
     </g>
     <g class="com.sun.star.drawing.CustomShape">
      <g id="id11">
       <rect class="BoundingBox" stroke="none" fill="none" x="5599" y="6600" width="614" height="614"/>
       <path fill="none" stroke="rgb(0,0,0)" d="M 5905,6601 C 6078,6601 6210,6733 6210,6906 6210,7079 6078,7211 5905,7211 5732,7211 5600,7079 5600,6906 5600,6733 5732,6601 5905,6601 Z"/>
       <path fill="none" stroke="rgb(0,0,0)" d="M 5600,6601 L 5600,6601 Z"/>
       <path fill="none" stroke="rgb(0,0,0)" d="M 6211,7212 L 6211,7212 Z"/>
      </g>
     </g>
     <g class="com.sun.star.drawing.CustomShape">
      <g id="id12">
       <rect class="BoundingBox" stroke="none" fill="none" x="8797" y="4599" width="614" height="614"/>
       <path fill="none" stroke="rgb(0,0,0)" d="M 9103,4600 C 9276,4600 9408,4732 9408,4905 9408,5078 9276,5210 9103,5210 8930,5210 8798,5078 8798,4905 8798,4732 8930,4600 9103,4600 Z"/>
       <path fill="none" stroke="rgb(0,0,0)" d="M 8798,4600 L 8798,4600 Z"/>
       <path fill="none" stroke="rgb(0,0,0)" d="M 9409,5211 L 9409,5211 Z"/>
      </g>
     </g>
     <g class="com.sun.star.drawing.CustomShape">
      <g id="id13">
       <rect class="BoundingBox" stroke="none" fill="none" x="8799" y="3599" width="614" height="614"/>
       <path fill="none" stroke="rgb(0,0,0)" d="M 9105,3600 C 9278,3600 9410,3732 9410,3905 9410,4078 9278,4210 9105,4210 8932,4210 8800,4078 8800,3905 8800,3732 8932,3600 9105,3600 Z"/>
       <path fill="none" stroke="rgb(0,0,0)" d="M 8800,3600 L 8800,3600 Z"/>
       <path fill="none" stroke="rgb(0,0,0)" d="M 9411,4211 L 9411,4211 Z"/>
      </g>
     </g>
     <g class="com.sun.star.drawing.CustomShape">
      <g id="id14">
       <rect class="BoundingBox" stroke="none" fill="none" x="8799" y="5599" width="614" height="614"/>
       <path fill="none" stroke="rgb(0,0,0)" d="M 9105,5600 C 9278,5600 9410,5732 9410,5905 9410,6078 9278,6210 9105,6210 8932,6210 8800,6078 8800,5905 8800,5732 8932,5600 9105,5600 Z"/>
       <path fill="none" stroke="rgb(0,0,0)" d="M 8800,5600 L 8800,5600 Z"/>
       <path fill="none" stroke="rgb(0,0,0)" d="M 9411,6211 L 9411,6211 Z"/>
      </g>
     </g>
     <g class="com.sun.star.drawing.CustomShape">
      <g id="id15">
       <rect class="BoundingBox" stroke="none" fill="none" x="8799" y="7599" width="614" height="614"/>
       <path fill="none" stroke="rgb(0,0,0)" d="M 9105,7600 C 9278,7600 9410,7732 9410,7905 9410,8078 9278,8210 9105,8210 8932,8210 8800,8078 8800,7905 8800,7732 8932,7600 9105,7600 Z"/>
       <path fill="none" stroke="rgb(0,0,0)" d="M 8800,7600 L 8800,7600 Z"/>
       <path fill="none" stroke="rgb(0,0,0)" d="M 9411,8211 L 9411,8211 Z"/>
      </g>
     </g>
     <g class="com.sun.star.drawing.CustomShape">
      <g id="id16">
       <rect class="BoundingBox" stroke="none" fill="none" x="8799" y="6599" width="614" height="614"/>
       <path fill="none" stroke="rgb(0,0,0)" d="M 9105,6600 C 9278,6600 9410,6732 9410,6905 9410,7078 9278,7210 9105,7210 8932,7210 8800,7078 8800,6905 8800,6732 8932,6600 9105,6600 Z"/>
       <path fill="none" stroke="rgb(0,0,0)" d="M 8800,6600 L 8800,6600 Z"/>
       <path fill="none" stroke="rgb(0,0,0)" d="M 9411,7211 L 9411,7211 Z"/>
      </g>
     </g>
     <g class="com.sun.star.drawing.CustomShape">
      <g id="id17">
       <rect class="BoundingBox" stroke="none" fill="none" x="14699" y="2999" width="503" height="9003"/>
       <path fill="none" stroke="rgb(0,0,0)" d="M 14950,12000 L 14700,12000 14700,3000 15200,3000 15200,12000 14950,12000 Z"/>
      </g>
     </g>
     <g class="com.sun.star.drawing.CustomShape">
      <g id="id18">
       <rect class="BoundingBox" stroke="none" fill="none" x="12899" y="9499" width="1803" height="2003"/>
       <path fill="none" stroke="rgb(0,0,0)" d="M 13800,11500 L 12900,11500 12900,9500 14700,9500 14700,11500 13800,11500 Z"/>
      </g>
     </g>
     <g class="com.sun.star.drawing.CustomShape">
      <g id="id19">
       <rect class="BoundingBox" stroke="none" fill="none" x="13399" y="10099" width="804" height="804"/>
       <path fill="none" stroke="rgb(0,0,0)" d="M 13800,10100 C 14027,10100 14200,10273 14200,10500 14200,10727 14027,10900 13800,10900 13573,10900 13400,10727 13400,10500 13400,10273 13573,10100 13800,10100 Z"/>
       <path fill="none" stroke="rgb(0,0,0)" d="M 13400,10100 L 13400,10100 Z"/>
       <path fill="none" stroke="rgb(0,0,0)" d="M 14201,10901 L 14201,10901 Z"/>
      </g>
     </g>
    </g>
   </g>
  </g>
 </g>
</svg>